<svg width="264" height="466" viewBox="0 0 264 466" fill="none" xmlns="http://www.w3.org/2000/svg">
<path d="M123.947 3.55114C123.147 3.76554 122.672 4.58807 122.886 5.38827L126.38 18.4283C126.595 19.2285 127.417 19.7033 128.218 19.4889C129.018 19.2745 129.493 18.452 129.278 17.6518L126.172 6.06069L137.763 2.95485C138.564 2.74044 139.039 1.91794 138.824 1.11775C138.61 0.31755 137.787 -0.157319 136.987 0.0570854L123.947 3.55114ZM164.955 252.045L164.821 250.551L164.955 252.045ZM94.5336 258.356L94.6675 259.85L94.5336 258.356ZM8.65709 462.596L8.31618 461.136L8.65709 462.596ZM47.0879 361.2L48.3114 360.333L47.0879 361.2ZM252.274 189.644L253.644 190.256L252.274 189.644ZM209.103 52.2087L125.085 3.70099L123.585 6.29907L207.603 54.8068L209.103 52.2087ZM164.821 250.551L94.3997 256.862L94.6675 259.85L165.089 253.539L164.821 250.551ZM8.31618 461.136L0.159136 463.039L0.840961 465.961L8.998 464.057L8.31618 461.136ZM45.8644 362.068C72.0975 399.053 52.4729 450.83 8.31618 461.136L8.998 464.057C55.2305 453.267 75.7776 399.056 48.3114 360.333L45.8644 362.068ZM94.3997 256.862C43.0521 261.463 16.0385 320.019 45.8644 362.068L48.3114 360.333C19.8246 320.171 45.6253 264.245 94.6675 259.85L94.3997 256.862ZM250.905 189.031C235.458 223.556 202.489 247.176 164.821 250.551L165.089 253.539C203.843 250.066 237.754 225.769 253.644 190.256L250.905 189.031ZM207.603 54.8068C254.268 81.7487 272.916 139.838 250.905 189.031L253.644 190.256C276.278 139.668 257.107 79.9237 209.103 52.2087L207.603 54.8068Z" fill="url(#paint0_linear)"/>
<defs>
<linearGradient id="paint0_linear" x1="-18.2762" y1="461.528" x2="215.059" y2="57.3794" gradientUnits="userSpaceOnUse">
<stop stop-color="#FFA800"/>
<stop offset="1" stop-color="#FF005C"/>
</linearGradient>
</defs>
</svg>
