<svg width="386" height="314" viewBox="0 0 386 314" fill="none" xmlns="http://www.w3.org/2000/svg">
<g filter="url(#filter0_d)">
<path d="M314.084 162.394L312.708 162.99L314.084 162.394ZM374.949 305.395C375.719 305.699 376.591 305.322 376.895 304.551L381.855 291.995C382.159 291.225 381.781 290.353 381.01 290.049C380.24 289.745 379.369 290.122 379.064 290.893L374.656 302.054L363.495 297.645C362.724 297.341 361.853 297.719 361.549 298.49C361.245 299.26 361.622 300.131 362.393 300.436L374.949 305.395ZM182.891 177.233L183.734 175.993L182.891 177.233ZM113.843 130.258L114.687 129.018L113.843 130.258ZM88.8097 106.837L87.6284 107.762L88.8097 106.837ZM241.409 161.259L242.765 161.899L241.409 161.259ZM312.708 162.99L374.124 304.597L376.876 303.403L315.46 161.797L312.708 162.99ZM183.734 175.993L114.687 129.018L113 131.499L182.047 178.473L183.734 175.993ZM89.9911 105.913L7.18137 0.0756715L4.81863 1.92433L87.6284 107.762L89.9911 105.913ZM114.687 129.018C105.311 122.639 96.9796 114.845 89.9911 105.913L87.6284 107.762C94.8079 116.937 103.367 124.945 113 131.499L114.687 129.018ZM240.052 160.62C229.993 181.962 203.242 189.265 183.734 175.993L182.047 178.473C203.079 192.782 231.92 184.909 242.765 161.899L240.052 160.62ZM315.46 161.797C301.294 129.133 255.231 128.414 240.052 160.62L242.765 161.899C256.844 132.027 299.568 132.694 312.708 162.99L315.46 161.797Z" fill="url(#paint0_linear)"/>
</g>
<defs>
<filter id="filter0_d" x="0.818634" y="0.0756683" width="385.141" height="313.425" filterUnits="userSpaceOnUse" color-interpolation-filters="sRGB">
<feFlood flood-opacity="0" result="BackgroundImageFix"/>
<feColorMatrix in="SourceAlpha" type="matrix" values="0 0 0 0 0 0 0 0 0 0 0 0 0 0 0 0 0 0 127 0"/>
<feOffset dy="4"/>
<feGaussianBlur stdDeviation="2"/>
<feColorMatrix type="matrix" values="0 0 0 0 0 0 0 0 0 0 0 0 0 0 0 0 0 0 0.25 0"/>
<feBlend mode="normal" in2="BackgroundImageFix" result="effect1_dropShadow"/>
<feBlend mode="normal" in="SourceGraphic" in2="effect1_dropShadow" result="shape"/>
</filter>
<linearGradient id="paint0_linear" x1="363.5" y1="412" x2="-18.4997" y2="93.4998" gradientUnits="userSpaceOnUse">
<stop stop-color="#09CE35"/>
<stop offset="1" stop-color="#0C41FE"/>
</linearGradient>
</defs>
</svg>
