<svg width="399" height="79" viewBox="0 0 399 79" fill="none" xmlns="http://www.w3.org/2000/svg">
<path d="M392.345 59.3581L391.446 58.1572L391.446 58.1572L392.345 59.3581ZM398.985 55.7137C399.103 54.8937 398.534 54.1333 397.714 54.0153L384.351 52.0923C383.531 51.9743 382.771 52.5434 382.653 53.3633C382.535 54.1833 383.104 54.9437 383.924 55.0617L395.802 56.771L394.092 68.6487C393.974 69.4687 394.543 70.229 395.363 70.347C396.183 70.465 396.944 69.896 397.062 69.076L398.985 55.7137ZM159.927 10.0203L160.561 11.38L160.561 11.38L159.927 10.0203ZM150.898 14.2277L150.264 12.868L150.898 14.2277ZM109.047 23.4995L109.047 21.9995L109.047 23.4995ZM268.422 39.3053L269.654 38.4491L268.422 39.3053ZM393.244 60.559L398.399 56.7009L396.601 54.2991L391.446 58.1572L393.244 60.559ZM159.294 8.6607L150.264 12.868L151.531 15.5873L160.561 11.38L159.294 8.6607ZM109.047 21.9995L0.499998 21.9995L0.499998 24.9995L109.047 24.9995L109.047 21.9995ZM150.264 12.868C137.356 18.8827 123.288 21.9995 109.047 21.9995L109.047 24.9995C123.726 24.9995 138.226 21.7869 151.531 15.5873L150.264 12.868ZM269.654 38.4491C245.01 2.99811 198.429 -9.57487 159.294 8.6607L160.561 11.38C198.373 -6.2392 243.379 5.9088 267.191 40.1615L269.654 38.4491ZM391.446 58.1572C352.587 87.2388 297.358 78.3019 269.654 38.4491L267.191 40.1615C295.864 81.4085 353.025 90.658 393.244 60.559L391.446 58.1572Z" fill="url(#paint0_linear)"/>
<defs>
<linearGradient id="paint0_linear" x1="383" y1="335" x2="1.00036" y2="16.4996" gradientUnits="userSpaceOnUse">
<stop stop-color="#9EFF00"/>
<stop offset="1" stop-color="#FF006B"/>
</linearGradient>
</defs>
</svg>
